{"glyphs":{"0":{"ha":1042,"x_min":29,"x_max":1013,"o":"m 701 463 q 646 585 701 533 q 521 637 592 637 q 395 585 448 637 q 341 463 341 534 q 395 341 341 393 q 521 290 448 290 q 646 341 593 290 q 701 463 701 393 m 1013 463 q 862 132 1013 269 q 521 0 718 0 q 180 132 324 0 q 29 463 29 269 q 180 794 29 656 q 521 926 326 926 q 862 794 716 926 q 1013 463 1013 656 z "},"1":{"ha":498,"x_min":29,"x_max":469,"o":"m 144 0 l 144 660 l 29 660 l 144 926 l 469 926 l 469 0 l 144 0 z "},"2":{"ha":1042,"x_min":29,"x_max":1013,"o":"m 29 0 l 29 293 q 116 496 29 407 q 318 585 203 585 l 665 585 q 701 619 701 585 q 665 660 701 660 l 87 660 l 87 926 l 724 926 q 926 837 839 926 q 1013 633 1013 748 q 925 430 1013 518 q 724 341 838 341 l 376 341 q 344 314 351 341 q 341 267 341 305 l 1013 267 l 1013 0 l 29 0 z "},"3":{"ha":984,"x_min":29,"x_max":955,"o":"m 955 288 q 869 85 955 170 q 665 0 782 0 l 29 0 l 29 267 l 608 267 q 642 303 642 267 q 608 341 642 341 l 260 341 l 260 585 l 608 585 q 642 619 642 585 q 608 660 642 660 l 29 660 l 29 926 l 665 926 q 870 840 786 926 q 955 633 955 753 q 897 463 955 539 q 955 288 955 387 z "},"4":{"ha":1042,"x_min":29,"x_max":1013,"o":"m 955 174 l 955 0 l 631 0 l 631 174 l 29 174 l 144 810 l 480 810 l 416 463 l 631 463 l 631 926 l 955 926 l 955 463 l 1013 463 l 1013 174 l 955 174 z "},"5":{"ha":1042,"x_min":29,"x_max":1013,"o":"m 1013 293 q 926 88 1013 177 q 724 0 840 0 l 29 0 l 29 267 l 665 267 q 701 307 701 267 q 665 341 701 341 l 29 341 l 29 926 l 955 926 l 955 660 l 341 660 l 341 585 l 724 585 q 925 496 838 585 q 1013 293 1013 407 z "},"6":{"ha":1042,"x_min":29,"x_max":1013,"o":"m 701 307 q 665 341 701 341 l 376 341 q 341 307 341 341 q 376 267 341 267 l 665 267 q 701 307 701 267 m 1013 293 q 926 88 1013 177 q 724 0 840 0 l 318 0 q 116 87 203 0 q 29 292 29 176 l 29 637 q 116 838 29 751 q 318 926 203 926 l 955 926 l 955 660 l 376 660 q 341 625 341 660 q 376 585 341 585 l 724 585 q 925 496 838 585 q 1013 293 1013 407 z "},"7":{"ha":1042,"x_min":29,"x_max":1013,"o":"m 399 0 l 29 0 l 467 660 l 29 660 l 29 926 l 1013 926 l 399 0 z "},"8":{"ha":1042,"x_min":29,"x_max":1013,"o":"m 701 301 q 665 341 701 341 l 376 341 q 341 301 341 341 q 376 267 341 267 l 665 267 q 701 301 701 267 m 677 619 q 642 660 677 660 l 399 660 q 365 619 365 660 q 399 585 365 585 l 642 585 q 677 619 677 585 m 1013 269 q 924 79 1013 159 q 724 0 835 0 l 318 0 q 119 77 205 0 q 29 270 29 159 q 131 479 29 397 q 52 668 52 557 q 144 853 52 775 q 341 926 231 926 l 701 926 q 899 852 813 926 q 989 665 989 774 q 911 479 989 557 q 1013 269 1013 398 z "},"9":{"ha":1042,"x_min":29,"x_max":1013,"o":"m 701 619 q 665 660 701 660 l 376 660 q 341 619 341 660 q 376 585 341 585 l 665 585 q 701 619 701 585 m 1013 290 q 925 87 1013 175 q 724 0 838 0 l 87 0 l 87 267 l 665 267 q 701 301 701 267 q 665 341 701 341 l 318 341 q 116 430 203 341 q 29 633 29 519 q 116 837 29 748 q 318 926 203 926 l 724 926 q 926 838 840 926 q 1013 634 1013 749 l 1013 290 z "}," ":{"ha":521,"x_min":0,"x_max":0,"o":""},"!":{"ha":290,"x_min":29,"x_max":260,"o":"m 260 116 q 226 34 260 68 q 144 0 192 0 q 63 34 97 0 q 29 116 29 70 q 63 197 29 163 q 144 231 97 231 q 226 197 192 231 q 260 116 260 163 m 237 290 l 52 290 l 29 926 l 260 926 l 237 290 z "},"\"":{"ha":578,"x_min":29,"x_max":550,"o":"m 260 810 q 243 723 260 770 q 192 633 227 676 q 110 578 149 581 l 144 694 q 63 728 97 694 q 29 810 29 764 q 64 891 29 857 q 144 926 98 926 q 226 891 191 926 q 260 810 260 857 m 550 810 q 532 723 550 770 q 481 633 515 676 q 399 578 439 581 l 434 694 q 352 728 388 694 q 318 810 318 764 q 353 891 318 857 q 434 926 388 926 q 515 891 480 926 q 550 810 550 857 z "},"#":{"ha":925,"x_min":29,"x_max":896,"o":"m 403 608 l 377 463 l 522 463 l 547 608 l 403 608 m 866 608 l 721 608 l 696 463 l 840 463 l 810 290 l 665 290 l 639 144 l 465 144 l 492 290 l 347 290 l 321 144 l 147 144 l 174 290 l 29 290 l 59 463 l 203 463 l 229 608 l 85 608 l 115 781 l 259 781 l 286 926 l 460 926 l 433 781 l 578 781 l 604 926 l 778 926 l 751 781 l 896 781 l 866 608 z "},"$":{"ha":984,"x_min":29,"x_max":955,"o":"m 587 637 q 564 610 564 637 q 567 601 564 603 l 735 475 q 839 264 839 396 q 768 96 839 171 q 608 6 702 26 l 608 -115 l 376 -115 l 376 0 l 29 0 l 29 290 l 373 290 q 396 317 396 290 q 393 326 396 322 l 236 440 q 144 645 144 507 q 212 821 144 743 q 376 920 280 899 l 376 1042 l 608 1042 l 608 926 l 955 926 l 955 637 l 587 637 z "},"%":{"ha":1171,"x_min":29,"x_max":1142,"o":"m 347 694 q 321 755 347 729 q 260 781 295 781 q 199 755 226 781 q 174 694 174 729 q 199 633 174 661 q 260 608 227 608 q 321 633 295 608 q 347 694 347 660 m 998 231 q 971 292 998 267 q 911 318 945 318 q 850 292 878 318 q 824 231 824 267 q 850 170 824 198 q 911 144 878 144 q 971 170 945 144 q 998 231 998 197 m 492 694 q 422 532 492 602 q 260 463 353 463 q 98 532 168 463 q 29 694 29 602 q 98 857 29 787 q 260 926 168 926 q 422 857 353 926 q 492 694 492 787 m 536 -10 l 318 67 l 635 937 l 853 859 l 536 -10 m 1142 231 q 1073 69 1142 139 q 911 0 1004 0 q 749 69 819 0 q 680 231 680 139 q 749 393 680 324 q 911 463 819 463 q 1073 393 1004 463 q 1142 231 1142 324 z "},"&":{"ha":984,"x_min":29,"x_max":955,"o":"m 318 0 q 115 85 201 0 q 29 288 29 170 q 87 463 29 387 q 29 633 29 537 q 113 840 29 753 q 318 926 197 926 l 955 926 l 955 660 l 376 660 q 341 619 341 660 q 376 585 341 585 l 550 585 l 550 341 l 376 341 q 341 303 341 341 q 376 267 341 267 l 661 267 l 661 440 l 955 440 l 955 0 l 318 0 z "},"'":{"ha":290,"x_min":29,"x_max":260,"o":"m 260 810 q 243 723 260 770 q 192 633 227 676 q 110 578 149 581 l 144 694 q 63 728 97 694 q 29 810 29 764 q 64 891 29 857 q 144 926 98 926 q 226 891 191 926 q 260 810 260 857 z "},"(":{"ha":405,"x_min":29,"x_max":376,"o":"m 203 -115 q 29 463 29 134 q 203 1042 29 793 l 376 1042 q 260 463 260 770 q 376 -115 260 156 l 203 -115 z "},")":{"ha":405,"x_min":29,"x_max":376,"o":"m 376 463 q 203 -115 376 134 l 29 -115 q 144 463 144 158 q 29 1042 144 768 l 203 1042 q 376 463 376 791 z "},"*":{"ha":528,"x_min":29,"x_max":499,"o":"m 429 495 l 334 551 l 334 440 l 195 440 l 195 551 l 98 495 l 29 616 l 125 671 l 29 727 l 98 847 l 195 791 l 195 903 l 334 903 l 334 791 l 429 847 l 499 727 l 403 671 l 499 616 l 429 495 z "},"+":{"ha":521,"x_min":29,"x_max":492,"o":"m 347 376 l 347 231 l 174 231 l 174 376 l 29 376 l 29 550 l 174 550 l 174 694 l 347 694 l 347 550 l 492 550 l 492 376 l 347 376 z "},",":{"ha":290,"x_min":29,"x_max":260,"o":"m 260 116 q 243 29 260 75 q 192 -60 227 -18 q 110 -115 149 -113 l 144 0 q 63 34 97 0 q 29 116 29 70 q 64 197 29 162 q 144 231 98 231 q 226 197 191 231 q 260 116 260 162 z "},"-":{"ha":521,"x_min":29,"x_max":492,"o":"m 29 376 l 29 550 l 492 550 l 492 376 l 29 376 z "},".":{"ha":290,"x_min":29,"x_max":260,"o":"m 260 116 q 226 34 260 68 q 144 0 192 0 q 63 34 97 0 q 29 116 29 70 q 63 197 29 163 q 144 231 97 231 q 226 197 192 231 q 260 116 260 163 z "},"/":{"ha":614,"x_min":0,"x_max":614,"o":"m 218 -119 l 0 -41 l 396 1046 l 614 968 l 218 -119 z "},":":{"ha":290,"x_min":29,"x_max":260,"o":"m 260 116 q 226 34 260 68 q 144 0 192 0 q 63 34 97 0 q 29 116 29 70 q 63 197 29 163 q 144 231 97 231 q 226 197 192 231 q 260 116 260 163 m 260 578 q 226 497 260 530 q 144 463 192 463 q 63 497 97 463 q 29 578 29 531 q 63 660 29 626 q 144 694 96 694 q 226 660 192 694 q 260 578 260 626 z "},";":{"ha":290,"x_min":29,"x_max":260,"o":"m 260 116 q 243 29 260 75 q 192 -60 227 -18 q 110 -115 149 -113 l 144 0 q 63 34 97 0 q 29 116 29 70 q 64 197 29 162 q 144 231 98 231 q 226 197 191 231 q 260 116 260 162 m 260 578 q 226 497 260 530 q 144 463 192 463 q 63 497 97 463 q 29 578 29 531 q 63 660 29 626 q 144 694 96 694 q 226 660 192 694 q 260 578 260 626 z "},"<":{"ha":405,"x_min":29,"x_max":376,"o":"m 144 174 l 29 463 l 144 752 l 376 752 l 260 463 l 376 174 l 144 174 z "},"=":{"ha":637,"x_min":29,"x_max":608,"o":"m 29 260 l 29 434 l 608 434 l 608 260 l 29 260 m 29 492 l 29 665 l 608 665 l 608 492 l 29 492 z "},">":{"ha":405,"x_min":29,"x_max":376,"o":"m 260 174 l 29 174 l 144 463 l 29 752 l 260 752 l 376 463 l 260 174 z "},"?":{"ha":868,"x_min":29,"x_max":839,"o":"m 260 116 q 226 34 260 68 q 144 0 192 0 q 63 34 97 0 q 29 116 29 70 q 63 197 29 163 q 144 231 97 231 q 226 197 192 231 q 260 116 260 163 m 839 633 q 751 430 839 518 q 550 341 665 341 l 307 341 q 260 267 258 341 l 29 267 l 29 293 q 116 496 29 407 q 318 585 203 585 l 492 585 q 527 619 527 585 q 492 660 527 660 l 29 660 l 29 926 l 550 926 q 752 837 665 926 q 839 633 839 748 z "},"@":{"ha":845,"x_min":29,"x_max":816,"o":"m 422 521 l 393 411 l 452 411 l 422 521 m 483 290 l 472 332 l 373 332 l 361 290 l 222 290 l 314 637 l 531 637 l 621 290 l 483 290 m 701 463 q 617 658 701 575 q 422 741 534 741 q 227 658 310 741 q 144 463 144 575 q 227 268 144 351 q 422 185 310 185 q 617 268 534 185 q 701 463 701 350 m 816 463 q 699 185 816 302 q 422 69 583 69 q 145 185 262 69 q 29 463 29 302 q 145 740 29 624 q 422 857 262 857 q 699 739 581 857 q 816 463 816 622 z "},"A":{"ha":1099,"x_min":29,"x_max":1071,"o":"m 550 617 l 479 347 l 621 347 l 550 617 m 712 0 l 682 116 l 418 116 l 388 0 l 29 0 l 272 926 l 827 926 l 1071 0 l 712 0 z "},"B":{"ha":1042,"x_min":29,"x_max":1013,"o":"m 665 301 q 644 349 665 329 q 596 370 624 370 l 353 370 l 353 231 l 596 231 q 644 252 624 231 q 665 301 665 273 m 654 625 q 633 673 654 653 q 585 694 612 694 l 353 694 l 353 555 l 585 555 q 633 576 612 555 q 654 625 654 597 m 1013 270 q 907 72 1013 151 q 688 0 811 0 l 29 0 l 29 926 l 631 926 q 850 853 753 926 q 955 654 955 773 q 898 490 955 562 q 1013 270 1013 412 z "},"C":{"ha":926,"x_min":29,"x_max":897,"o":"m 521 0 q 180 132 324 0 q 29 463 29 269 q 180 794 29 656 q 521 926 326 926 l 897 926 l 897 637 l 521 637 q 395 585 449 637 q 341 463 341 533 q 395 341 341 393 q 521 290 448 290 l 897 290 l 897 0 l 521 0 z "},"D":{"ha":1042,"x_min":29,"x_max":1013,"o":"m 701 463 q 646 585 701 533 q 521 637 592 637 l 353 637 l 353 290 l 521 290 q 646 341 593 290 q 701 463 701 393 m 1013 463 q 862 132 1013 269 q 521 0 718 0 l 29 0 l 29 926 l 521 926 q 862 794 716 926 q 1013 463 1013 656 z "},"E":{"ha":984,"x_min":29,"x_max":955,"o":"m 29 0 l 29 926 l 955 926 l 955 637 l 376 637 l 376 585 l 724 585 l 724 341 l 376 341 l 376 290 l 955 290 l 955 0 l 29 0 z "},"F":{"ha":984,"x_min":29,"x_max":955,"o":"m 376 637 l 376 585 l 724 585 l 724 341 l 376 341 l 376 0 l 29 0 l 29 926 l 955 926 l 955 637 l 376 637 z "},"G":{"ha":1042,"x_min":29,"x_max":1013,"o":"m 521 0 q 180 132 324 0 q 29 463 29 269 q 180 794 29 656 q 521 926 326 926 q 858 800 712 926 l 646 588 q 521 637 589 637 q 395 585 449 637 q 341 463 341 533 q 395 341 341 393 q 521 290 448 290 l 665 290 l 665 463 l 1013 463 l 1013 0 l 521 0 z "},"H":{"ha":1042,"x_min":29,"x_max":1013,"o":"m 665 0 l 665 341 l 376 341 l 376 0 l 29 0 l 29 926 l 376 926 l 376 585 l 665 585 l 665 926 l 1013 926 l 1013 0 l 665 0 z "},"I":{"ha":405,"x_min":29,"x_max":376,"o":"m 29 0 l 29 926 l 376 926 l 376 0 l 29 0 z "},"J":{"ha":608,"x_min":29,"x_max":578,"o":"m 578 58 q 413 -192 578 -130 q 87 -231 314 -231 l 29 58 q 180 68 145 58 q 267 174 267 92 l 267 926 l 578 926 l 578 58 z "},"K":{"ha":1042,"x_min":29,"x_max":1013,"o":"m 770 0 q 538 116 653 0 l 376 278 l 376 0 l 29 0 l 29 926 l 376 926 l 376 623 l 589 926 l 1013 926 l 675 442 l 814 303 q 870 290 827 290 l 1013 290 l 1013 0 l 770 0 z "},"L":{"ha":926,"x_min":29,"x_max":897,"o":"m 29 0 l 29 926 l 376 926 l 376 290 l 897 290 l 897 0 l 29 0 z "},"M":{"ha":1158,"x_min":29,"x_max":1128,"o":"m 781 0 l 781 290 l 578 0 l 376 290 l 376 0 l 29 0 l 29 926 l 376 926 l 578 637 l 781 926 l 1128 926 l 1128 0 l 781 0 z "},"N":{"ha":1042,"x_min":29,"x_max":1013,"o":"m 665 0 q 593 262 660 150 q 376 405 513 398 l 376 0 l 29 0 l 29 926 l 33 926 q 388 859 228 926 q 665 637 568 783 l 665 926 l 1013 926 l 1013 0 l 665 0 z "},"O":{"ha":1042,"x_min":29,"x_max":1013,"o":"m 701 463 q 646 585 701 533 q 521 637 592 637 q 395 585 448 637 q 341 463 341 534 q 395 341 341 393 q 521 290 448 290 q 646 341 593 290 q 701 463 701 393 m 1013 463 q 862 132 1013 269 q 521 0 718 0 q 180 132 324 0 q 29 463 29 269 q 180 794 29 656 q 521 926 326 926 q 862 794 716 926 q 1013 463 1013 656 z "},"P":{"ha":1042,"x_min":29,"x_max":1013,"o":"m 1013 602 q 914 376 1013 475 q 688 278 816 278 l 376 278 l 376 0 l 29 0 l 29 498 l 596 498 q 644 518 624 498 q 665 567 665 539 q 644 616 665 595 q 596 637 624 637 l 29 637 l 29 926 l 688 926 q 914 827 816 926 q 1013 602 1013 729 z "},"Q":{"ha":1099,"x_min":29,"x_max":1071,"o":"m 701 463 q 646 585 701 533 q 521 637 592 637 q 395 585 449 637 q 341 463 341 533 q 395 341 341 393 q 521 290 448 290 q 646 341 593 290 q 701 463 701 393 m 521 0 q 180 132 324 0 q 29 463 29 269 q 180 794 29 656 q 521 926 326 926 q 862 794 716 926 q 1013 463 1013 656 q 978 290 1013 374 l 1071 290 l 1071 0 l 521 0 z "},"R":{"ha":1099,"x_min":29,"x_max":1071,"o":"m 770 0 q 538 116 653 0 l 376 278 l 376 0 l 29 0 l 29 498 l 596 498 q 644 518 624 498 q 665 567 665 539 q 644 616 665 595 q 596 637 624 637 l 29 637 l 29 926 l 688 926 q 915 833 816 926 q 1013 614 1013 740 q 957 439 1013 519 q 814 326 902 360 q 874 290 835 290 l 1071 290 l 1071 0 l 770 0 z "},"S":{"ha":984,"x_min":29,"x_max":955,"o":"m 587 637 q 564 610 564 637 q 567 601 564 603 l 735 475 q 839 264 839 396 q 749 77 839 154 q 549 0 659 0 l 29 0 l 29 290 l 373 290 q 396 317 396 290 q 393 326 396 322 l 236 440 q 144 645 144 507 q 233 842 144 758 q 434 926 321 926 l 955 926 l 955 637 l 587 637 z "},"T":{"ha":1042,"x_min":29,"x_max":1013,"o":"m 694 637 l 694 0 l 347 0 l 347 637 l 29 637 l 29 926 l 1013 926 l 1013 637 l 694 637 z "},"U":{"ha":1042,"x_min":29,"x_max":1013,"o":"m 1013 463 q 862 132 1013 269 q 521 0 718 0 q 180 132 324 0 q 29 463 29 269 l 29 926 l 341 926 l 341 463 q 395 341 341 393 q 521 290 448 290 q 646 341 592 290 q 701 463 701 393 l 701 926 l 1013 926 l 1013 463 z "},"V":{"ha":1099,"x_min":29,"x_max":1071,"o":"m 827 0 l 272 0 l 29 926 l 388 926 l 550 309 l 712 926 l 1071 926 l 827 0 z "},"W":{"ha":1493,"x_min":29,"x_max":1464,"o":"m 1221 0 l 827 0 l 747 309 l 665 0 l 272 0 l 29 926 l 388 926 l 469 617 l 550 926 l 943 926 l 1024 617 l 1105 926 l 1464 926 l 1221 0 z "},"X":{"ha":1215,"x_min":29,"x_max":1186,"o":"m 758 0 l 608 191 l 457 0 l 29 0 l 393 463 l 29 926 l 457 926 l 608 735 l 758 926 l 1186 926 l 822 463 l 1186 0 l 758 0 z "},"Y":{"ha":1146,"x_min":29,"x_max":1117,"o":"m 747 290 l 747 0 l 399 0 l 399 290 l 29 926 l 422 926 l 573 654 l 724 926 l 1117 926 l 747 290 z "},"Z":{"ha":1042,"x_min":29,"x_max":1013,"o":"m 29 0 l 450 637 l 29 637 l 29 926 l 1013 926 l 591 290 l 1013 290 l 1013 0 l 29 0 z "},"[":{"ha":405,"x_min":29,"x_max":376,"o":"m 29 -115 l 29 1042 l 376 1042 l 376 810 l 260 810 l 260 116 l 376 116 l 376 -115 l 29 -115 z "},"\\":{"ha":614,"x_min":0,"x_max":614,"o":"m 396 -119 l 0 968 l 218 1046 l 614 -41 l 396 -119 z "},"]":{"ha":405,"x_min":29,"x_max":376,"o":"m 29 -115 l 29 116 l 144 116 l 144 810 l 29 810 l 29 1042 l 376 1042 l 376 -115 l 29 -115 z "},"^":{"ha":660,"x_min":29,"x_max":631,"o":"m 492 521 l 330 804 l 168 521 l 29 521 l 260 926 l 399 926 l 631 521 l 492 521 z "},"_":{"ha":463,"x_min":0,"x_max":463,"o":"m 0 0 l 0 174 l 463 174 l 463 0 l 0 0 z "},"`":{"ha":578,"x_min":29,"x_max":550,"o":"m 29 1042 l 144 1158 l 550 1007 l 550 984 l 29 1042 z "},"a":{"ha":1099,"x_min":29,"x_max":1071,"o":"m 550 617 l 479 347 l 621 347 l 550 617 m 712 0 l 682 116 l 418 116 l 388 0 l 29 0 l 272 926 l 827 926 l 1071 0 l 712 0 z "},"b":{"ha":1042,"x_min":29,"x_max":1013,"o":"m 665 301 q 644 349 665 329 q 596 370 624 370 l 353 370 l 353 231 l 596 231 q 644 252 624 231 q 665 301 665 273 m 654 625 q 633 673 654 653 q 585 694 612 694 l 353 694 l 353 555 l 585 555 q 633 576 612 555 q 654 625 654 597 m 1013 270 q 907 72 1013 151 q 688 0 811 0 l 29 0 l 29 926 l 631 926 q 850 853 753 926 q 955 654 955 773 q 898 490 955 562 q 1013 270 1013 412 z "},"c":{"ha":926,"x_min":29,"x_max":897,"o":"m 521 0 q 180 132 324 0 q 29 463 29 269 q 180 794 29 656 q 521 926 326 926 l 897 926 l 897 637 l 521 637 q 395 585 449 637 q 341 463 341 533 q 395 341 341 393 q 521 290 448 290 l 897 290 l 897 0 l 521 0 z "},"d":{"ha":1042,"x_min":29,"x_max":1013,"o":"m 701 463 q 646 585 701 533 q 521 637 592 637 l 353 637 l 353 290 l 521 290 q 646 341 593 290 q 701 463 701 393 m 1013 463 q 862 132 1013 269 q 521 0 718 0 l 29 0 l 29 926 l 521 926 q 862 794 716 926 q 1013 463 1013 656 z "},"e":{"ha":984,"x_min":29,"x_max":955,"o":"m 29 0 l 29 926 l 955 926 l 955 637 l 376 637 l 376 585 l 724 585 l 724 341 l 376 341 l 376 290 l 955 290 l 955 0 l 29 0 z "},"f":{"ha":984,"x_min":29,"x_max":955,"o":"m 376 637 l 376 585 l 724 585 l 724 341 l 376 341 l 376 0 l 29 0 l 29 926 l 955 926 l 955 637 l 376 637 z "},"g":{"ha":1042,"x_min":29,"x_max":1013,"o":"m 521 0 q 180 132 324 0 q 29 463 29 269 q 180 794 29 656 q 521 926 326 926 l 1013 926 l 1013 637 l 521 637 q 395 585 449 637 q 341 463 341 533 q 395 341 341 393 q 521 290 448 290 l 665 290 l 665 463 l 1013 463 l 1013 0 l 521 0 z "},"h":{"ha":1042,"x_min":29,"x_max":1013,"o":"m 665 0 l 665 341 l 376 341 l 376 0 l 29 0 l 29 926 l 376 926 l 376 585 l 665 585 l 665 926 l 1013 926 l 1013 0 l 665 0 z "},"i":{"ha":405,"x_min":29,"x_max":376,"o":"m 29 0 l 29 926 l 376 926 l 376 0 l 29 0 z "},"j":{"ha":608,"x_min":29,"x_max":578,"o":"m 578 58 q 413 -193 578 -130 q 87 -231 316 -231 l 29 58 q 182 68 146 58 q 267 174 267 92 l 267 926 l 578 926 l 578 58 z "},"k":{"ha":1042,"x_min":29,"x_max":1013,"o":"m 770 0 q 538 116 653 0 l 376 278 l 376 0 l 29 0 l 29 926 l 376 926 l 376 623 l 589 926 l 1013 926 l 675 442 l 814 303 q 870 290 827 290 l 1013 290 l 1013 0 l 770 0 z "},"l":{"ha":926,"x_min":29,"x_max":897,"o":"m 29 0 l 29 926 l 376 926 l 376 290 l 897 290 l 897 0 l 29 0 z "},"m":{"ha":1158,"x_min":29,"x_max":1128,"o":"m 781 0 l 781 290 l 578 0 l 376 290 l 376 0 l 29 0 l 29 926 l 376 926 l 578 637 l 781 926 l 1128 926 l 1128 0 l 781 0 z "},"n":{"ha":1042,"x_min":29,"x_max":1013,"o":"m 665 0 l 376 370 l 376 0 l 29 0 l 29 926 l 376 926 l 665 555 l 665 926 l 1013 926 l 1013 0 l 665 0 z "},"o":{"ha":1042,"x_min":29,"x_max":1013,"o":"m 701 463 q 646 585 701 533 q 521 637 592 637 q 395 585 448 637 q 341 463 341 534 q 395 341 341 393 q 521 290 448 290 q 646 341 593 290 q 701 463 701 393 m 1013 463 q 862 132 1013 269 q 521 0 718 0 q 180 132 324 0 q 29 463 29 269 q 180 794 29 656 q 521 926 326 926 q 862 794 716 926 q 1013 463 1013 656 z "},"p":{"ha":1042,"x_min":29,"x_max":1013,"o":"m 665 602 q 644 650 665 629 q 596 671 624 671 l 376 671 l 376 532 l 596 532 q 644 553 624 532 q 665 602 665 574 m 1013 602 q 914 376 1013 475 q 688 278 816 278 l 376 278 l 376 0 l 29 0 l 29 926 l 688 926 q 914 827 816 926 q 1013 602 1013 729 z "},"q":{"ha":1099,"x_min":29,"x_max":1071,"o":"m 701 463 q 646 585 701 533 q 521 637 592 637 q 395 585 449 637 q 341 463 341 533 q 395 341 341 393 q 521 290 448 290 q 646 341 593 290 q 701 463 701 393 m 521 0 q 180 132 324 0 q 29 463 29 269 q 180 794 29 656 q 521 926 326 926 q 862 794 716 926 q 1013 463 1013 656 q 978 290 1013 374 l 1071 290 l 1071 0 l 521 0 z "},"r":{"ha":1099,"x_min":29,"x_max":1071,"o":"m 665 602 q 644 650 665 629 q 596 671 624 671 l 376 671 l 376 532 l 596 532 q 644 553 624 532 q 665 602 665 574 m 770 0 q 538 116 653 0 l 376 278 l 376 0 l 29 0 l 29 926 l 688 926 q 915 833 816 926 q 1013 614 1013 740 q 957 439 1013 519 q 814 326 902 360 q 874 290 835 290 l 1071 290 l 1071 0 l 770 0 z "},"s":{"ha":984,"x_min":29,"x_max":955,"o":"m 587 637 q 564 610 564 637 q 567 601 564 603 l 735 475 q 839 264 839 396 q 749 77 839 154 q 549 0 659 0 l 29 0 l 29 290 l 373 290 q 396 317 396 290 q 393 326 396 322 l 236 440 q 144 645 144 507 q 233 842 144 758 q 434 926 321 926 l 955 926 l 955 637 l 587 637 z "},"t":{"ha":1042,"x_min":29,"x_max":1013,"o":"m 694 637 l 694 0 l 347 0 l 347 637 l 29 637 l 29 926 l 1013 926 l 1013 637 l 694 637 z "},"u":{"ha":1042,"x_min":29,"x_max":1013,"o":"m 1013 463 q 862 132 1013 269 q 521 0 718 0 q 180 132 324 0 q 29 463 29 269 l 29 926 l 341 926 l 341 463 q 395 341 341 393 q 521 290 448 290 q 646 341 592 290 q 701 463 701 393 l 701 926 l 1013 926 l 1013 463 z "},"v":{"ha":1099,"x_min":29,"x_max":1071,"o":"m 827 0 l 272 0 l 29 926 l 388 926 l 550 309 l 712 926 l 1071 926 l 827 0 z "},"w":{"ha":1493,"x_min":29,"x_max":1464,"o":"m 1221 0 l 827 0 l 747 309 l 665 0 l 272 0 l 29 926 l 388 926 l 469 617 l 550 926 l 943 926 l 1024 617 l 1105 926 l 1464 926 l 1221 0 z "},"x":{"ha":1215,"x_min":29,"x_max":1186,"o":"m 758 0 l 608 191 l 457 0 l 29 0 l 393 463 l 29 926 l 457 926 l 608 735 l 758 926 l 1186 926 l 822 463 l 1186 0 l 758 0 z "},"y":{"ha":1146,"x_min":29,"x_max":1117,"o":"m 747 290 l 747 0 l 399 0 l 399 290 l 29 926 l 422 926 l 573 654 l 724 926 l 1117 926 l 747 290 z "},"z":{"ha":1042,"x_min":29,"x_max":1013,"o":"m 29 0 l 450 637 l 29 637 l 29 926 l 1013 926 l 591 290 l 1013 290 l 1013 0 l 29 0 z "},"{":{"ha":521,"x_min":29,"x_max":492,"o":"m 376 -115 q 214 -45 283 -115 q 144 116 144 22 l 144 290 q 111 369 144 335 q 29 405 77 403 l 29 509 q 111 545 77 511 q 144 625 144 578 l 144 810 q 214 972 144 903 q 376 1042 283 1042 l 492 1042 l 492 810 l 376 810 l 376 578 q 342 498 376 532 q 260 463 309 465 q 342 427 308 460 q 376 347 376 393 l 376 116 l 492 116 l 492 -115 l 376 -115 z "},"|":{"ha":321,"x_min":29,"x_max":260,"o":"m 29 -115 l 29 1042 l 260 1042 l 260 -115 l 29 -115 z "},"}":{"ha":521,"x_min":29,"x_max":492,"o":"m 492 405 q 410 369 444 403 q 376 290 376 335 l 376 116 q 307 -45 376 22 q 144 -115 237 -115 l 29 -115 l 29 116 l 144 116 l 144 347 q 178 427 144 393 q 260 463 213 460 q 178 498 212 465 q 144 578 144 532 l 144 810 l 29 810 l 29 1042 l 144 1042 q 307 972 237 1042 q 376 810 376 903 l 376 625 q 410 545 376 578 q 492 509 444 511 l 492 405 z "},"~":{"ha":521,"x_min":29,"x_max":492,"o":"m 492 1031 q 373 984 428 984 q 259 1012 335 984 q 146 1040 183 1040 q 29 984 91 1040 l 29 1102 q 146 1147 81 1147 q 261 1119 185 1147 q 376 1091 337 1091 q 492 1147 430 1091 l 492 1031 z "},"":{"ha":290,"x_min":29,"x_max":260,"o":"m 260 116 q 243 29 260 75 q 192 -60 227 -18 q 110 -115 149 -113 l 144 0 q 63 34 97 0 q 29 116 29 70 q 64 197 29 162 q 144 231 98 231 q 226 197 191 231 q 260 116 260 162 z "},"":{"ha":578,"x_min":29,"x_max":550,"o":"m 260 116 q 243 29 260 75 q 192 -60 227 -18 q 110 -115 149 -113 l 144 0 q 63 34 97 0 q 29 116 29 70 q 64 197 29 162 q 144 231 98 231 q 226 197 191 231 q 260 116 260 162 m 550 116 q 532 29 550 75 q 481 -60 515 -18 q 399 -115 439 -113 l 434 0 q 352 34 388 0 q 318 116 318 70 q 353 197 318 162 q 434 231 388 231 q 515 197 480 231 q 550 116 550 162 z "},"":{"ha":868,"x_min":29,"x_max":839,"o":"m 260 116 q 226 34 260 68 q 144 0 192 0 q 63 34 97 0 q 29 116 29 70 q 63 197 29 163 q 144 231 97 231 q 226 197 192 231 q 260 116 260 163 m 550 116 q 515 34 550 68 q 434 0 481 0 q 352 34 388 0 q 318 116 318 70 q 352 197 318 163 q 434 231 388 231 q 515 197 481 231 q 550 116 550 163 m 839 116 q 805 34 839 70 q 724 0 771 0 q 642 34 677 0 q 608 116 608 70 q 642 197 608 163 q 724 231 677 231 q 805 197 771 231 q 839 116 839 163 z "},"":{"ha":1657,"x_min":29,"x_max":1628,"o":"m 347 694 q 321 755 347 729 q 260 781 295 781 q 199 755 226 781 q 174 694 174 729 q 199 633 174 661 q 260 608 227 608 q 321 633 295 608 q 347 694 347 660 m 998 231 q 971 292 998 267 q 911 318 945 318 q 850 292 878 318 q 824 231 824 267 q 850 170 824 198 q 911 144 878 144 q 971 170 945 144 q 998 231 998 197 m 1484 231 q 1457 292 1484 267 q 1397 318 1432 318 q 1336 292 1364 318 q 1310 231 1310 267 q 1336 170 1310 198 q 1397 144 1364 144 q 1457 170 1432 144 q 1484 231 1484 197 m 492 694 q 422 532 492 602 q 260 463 353 463 q 98 532 168 463 q 29 694 29 602 q 98 857 29 787 q 260 926 168 926 q 422 857 353 926 q 492 694 492 787 m 536 -10 l 318 67 l 635 937 l 853 859 l 536 -10 m 1142 231 q 1073 69 1142 139 q 911 0 1004 0 q 749 69 819 0 q 680 231 680 139 q 749 393 680 324 q 911 463 819 463 q 1073 393 1004 463 q 1142 231 1142 324 m 1628 231 q 1558 69 1628 139 q 1397 0 1489 0 q 1235 69 1304 0 q 1166 231 1166 139 q 1235 393 1166 324 q 1397 463 1304 463 q 1558 393 1489 463 q 1628 231 1628 324 z "},"":{"ha":984,"x_min":29,"x_max":955,"o":"m 587 637 q 564 610 564 637 q 567 601 564 603 l 735 475 q 839 264 839 396 q 749 77 839 154 q 549 0 659 0 l 29 0 l 29 290 l 373 290 q 396 317 396 290 q 393 326 396 322 l 236 440 q 144 645 144 507 q 233 842 144 758 q 434 926 321 926 l 955 926 l 955 637 l 587 637 m 597 984 l 387 984 l 155 1158 l 342 1158 l 492 1045 l 641 1158 l 829 1158 l 597 984 z "},"":{"ha":1661,"x_min":29,"x_max":1632,"o":"m 701 463 q 646 585 701 533 q 521 637 592 637 q 395 585 449 637 q 341 463 341 533 q 395 341 341 393 q 521 290 448 290 q 646 341 593 290 q 701 463 701 393 m 706 0 l 706 35 q 521 0 615 0 q 180 132 324 0 q 29 463 29 269 q 180 794 29 656 q 521 926 326 926 q 706 891 615 926 l 706 926 l 1632 926 l 1632 637 l 1053 637 l 1053 585 l 1400 585 l 1400 341 l 1053 341 l 1053 290 l 1632 290 l 1632 0 l 706 0 z "},"":{"ha":290,"x_min":29,"x_max":260,"o":"m 260 694 q 226 613 260 648 q 144 578 191 578 q 64 613 98 578 q 29 694 29 648 q 46 782 29 735 q 97 871 64 829 q 180 926 141 924 l 144 810 q 226 776 192 810 q 260 694 260 742 z "},"":{"ha":290,"x_min":29,"x_max":260,"o":"m 260 810 q 243 723 260 770 q 192 633 227 676 q 110 578 149 581 l 144 694 q 63 728 97 694 q 29 810 29 764 q 64 891 29 857 q 144 926 98 926 q 226 891 191 926 q 260 810 260 857 z "},"":{"ha":578,"x_min":29,"x_max":550,"o":"m 260 694 q 226 613 260 648 q 144 578 191 578 q 64 613 98 578 q 29 694 29 648 q 46 782 29 735 q 97 871 64 829 q 180 926 141 924 l 144 810 q 226 776 192 810 q 260 694 260 742 m 550 694 q 515 613 550 648 q 434 578 480 578 q 353 613 388 578 q 318 694 318 648 q 336 782 318 735 q 387 871 353 829 q 469 926 429 924 l 434 810 q 515 776 481 810 q 550 694 550 742 z "},"":{"ha":578,"x_min":29,"x_max":550,"o":"m 260 810 q 243 723 260 770 q 192 633 227 676 q 110 578 149 581 l 144 694 q 63 728 97 694 q 29 810 29 764 q 64 891 29 857 q 144 926 98 926 q 226 891 191 926 q 260 810 260 857 m 550 810 q 532 723 550 770 q 481 633 515 676 q 399 578 439 581 l 434 694 q 352 728 388 694 q 318 810 318 764 q 353 891 318 857 q 434 926 388 926 q 515 891 480 926 q 550 810 550 857 z "},"":{"ha":405,"x_min":29,"x_max":376,"o":"m 376 463 q 325 341 376 393 q 203 290 273 290 q 81 341 132 290 q 29 463 29 393 q 81 585 29 534 q 203 637 132 637 q 325 585 273 637 q 376 463 376 534 z "},"":{"ha":521,"x_min":29,"x_max":492,"o":"m 492 1031 q 373 984 428 984 q 259 1012 335 984 q 146 1040 183 1040 q 29 984 91 1040 l 29 1102 q 146 1147 81 1147 q 261 1119 185 1147 q 376 1091 337 1091 q 492 1147 430 1091 l 492 1031 z "},"":{"ha":839,"x_min":29,"x_max":810,"o":"m 681 463 l 681 572 l 604 463 l 528 572 l 528 463 l 398 463 l 398 701 l 279 701 l 279 463 l 148 463 l 148 701 l 29 701 l 29 810 l 528 810 l 604 701 l 681 810 l 810 810 l 810 463 l 681 463 z "},"":{"ha":984,"x_min":29,"x_max":955,"o":"m 587 637 q 564 610 564 637 q 567 601 564 603 l 735 475 q 839 264 839 396 q 749 77 839 154 q 549 0 659 0 l 29 0 l 29 290 l 373 290 q 396 317 396 290 q 393 326 396 322 l 236 440 q 144 645 144 507 q 233 842 144 758 q 434 926 321 926 l 955 926 l 955 637 l 587 637 m 597 984 l 387 984 l 155 1158 l 342 1158 l 492 1045 l 641 1158 l 829 1158 l 597 984 z "},"":{"ha":1661,"x_min":29,"x_max":1632,"o":"m 701 463 q 646 585 701 533 q 521 637 592 637 q 395 585 449 637 q 341 463 341 533 q 395 341 341 393 q 521 290 448 290 q 646 341 593 290 q 701 463 701 393 m 706 0 l 706 35 q 521 0 615 0 q 180 132 324 0 q 29 463 29 269 q 180 794 29 656 q 521 926 326 926 q 706 891 615 926 l 706 926 l 1632 926 l 1632 637 l 1053 637 l 1053 585 l 1400 585 l 1400 341 l 1053 341 l 1053 290 l 1632 290 l 1632 0 l 706 0 z "},"":{"ha":1146,"x_min":29,"x_max":1117,"o":"m 747 290 l 747 0 l 399 0 l 399 290 l 29 926 l 422 926 l 573 654 l 724 926 l 1117 926 l 747 290 m 515 1071 q 489 1009 515 1035 q 428 984 464 984 q 367 1010 395 984 q 341 1071 341 1036 q 367 1131 341 1105 q 428 1158 393 1158 q 489 1132 463 1158 q 515 1071 515 1106 m 804 1071 q 779 1009 804 1035 q 718 984 753 984 q 656 1010 684 984 q 631 1071 631 1036 q 656 1131 631 1105 q 718 1158 683 1158 q 779 1132 753 1158 q 804 1071 804 1106 z "}," ":{"ha":521,"x_min":0,"x_max":0,"o":""},"¡":{"ha":290,"x_min":29,"x_max":260,"o":"m 29 0 l 52 637 l 237 637 l 260 0 l 29 0 m 260 810 q 226 728 260 763 q 144 694 192 694 q 63 728 97 694 q 29 810 29 764 q 63 892 29 858 q 144 926 97 926 q 226 892 192 926 q 260 810 260 858 z "},"¢":{"ha":926,"x_min":29,"x_max":897,"o":"m 625 0 l 625 -115 l 393 -115 l 393 16 q 134 178 237 57 q 29 463 29 306 q 134 748 29 621 q 393 909 236 868 l 393 1042 l 625 1042 l 625 926 l 897 926 l 897 637 l 521 637 q 395 585 449 637 q 341 463 341 533 q 395 341 341 393 q 521 290 448 290 l 897 290 l 897 0 l 625 0 z "},"¥":{"ha":1146,"x_min":29,"x_max":1117,"o":"m 914 578 l 1059 578 l 1059 405 l 814 405 l 780 347 l 1059 347 l 1059 174 l 747 174 l 747 0 l 399 0 l 399 174 l 87 174 l 87 347 l 366 347 l 332 405 l 87 405 l 87 578 l 231 578 l 29 926 l 422 926 l 573 654 l 724 926 l 1117 926 l 914 578 z "},"¨":{"ha":521,"x_min":29,"x_max":492,"o":"m 203 1071 q 177 1009 203 1035 q 116 984 152 984 q 55 1010 81 984 q 29 1071 29 1036 q 54 1132 29 1107 q 116 1158 80 1158 q 176 1131 151 1158 q 203 1071 203 1105 m 492 1071 q 466 1009 492 1035 q 405 984 441 984 q 344 1010 372 984 q 318 1071 318 1036 q 343 1132 318 1107 q 405 1158 369 1158 q 466 1131 440 1158 q 492 1071 492 1105 z "},"©":{"ha":845,"x_min":29,"x_max":816,"o":"m 408 290 q 275 338 336 290 q 213 463 213 390 q 275 588 213 536 q 408 637 333 637 l 539 637 l 539 528 l 408 528 q 355 509 380 528 q 331 463 331 491 q 355 416 331 435 q 408 398 380 398 l 539 398 l 539 290 l 408 290 m 701 463 q 617 658 701 575 q 422 741 534 741 q 227 658 310 741 q 144 463 144 575 q 227 268 144 351 q 422 185 310 185 q 617 268 534 185 q 701 463 701 350 m 816 463 q 699 185 816 302 q 422 69 583 69 q 145 185 262 69 q 29 463 29 302 q 145 740 29 624 q 422 857 262 857 q 699 739 581 857 q 816 463 816 622 z "},"­":{"ha":521,"x_min":29,"x_max":492,"o":"m 29 376 l 29 550 l 492 550 l 492 376 l 29 376 z "},"®":{"ha":845,"x_min":29,"x_max":816,"o":"m 465 515 q 440 542 465 542 l 357 542 l 357 488 l 440 488 q 465 515 465 488 m 505 290 q 421 326 465 290 q 400 347 416 330 q 357 393 385 364 l 357 290 l 227 290 l 227 637 l 475 637 q 559 602 524 637 q 596 519 596 567 q 521 412 596 441 q 544 398 529 398 l 618 398 l 618 290 l 505 290 m 701 463 q 617 658 701 575 q 422 741 534 741 q 227 658 310 741 q 144 463 144 575 q 227 268 144 351 q 422 185 310 185 q 617 268 534 185 q 701 463 701 350 m 816 463 q 699 185 816 302 q 422 69 583 69 q 145 185 262 69 q 29 463 29 302 q 145 740 29 624 q 422 857 262 857 q 699 739 581 857 q 816 463 816 622 z "},"°":{"ha":318,"x_min":29,"x_max":290,"o":"m 220 795 q 215 818 220 807 q 201 838 210 829 q 182 851 193 846 q 159 857 171 857 q 135 851 146 857 q 116 838 124 846 q 102 818 107 829 q 97 795 97 807 q 102 771 97 783 q 116 752 107 760 q 135 739 124 743 q 159 734 146 734 q 201 752 183 734 q 220 795 220 771 m 290 795 q 250 703 290 742 q 159 665 210 665 q 67 703 105 665 q 29 795 29 743 q 67 887 29 847 q 159 926 104 926 q 250 887 212 926 q 290 795 290 848 z "},"±":{"ha":521,"x_min":29,"x_max":492,"o":"m 29 0 l 29 174 l 492 174 l 492 0 l 29 0 m 347 376 l 347 231 l 174 231 l 174 376 l 29 376 l 29 550 l 174 550 l 174 694 l 347 694 l 347 550 l 492 550 l 492 376 l 347 376 z "},"´":{"ha":578,"x_min":29,"x_max":550,"o":"m 29 984 l 29 1007 l 434 1158 l 550 1042 l 29 984 z "},"¶":{"ha":1042,"x_min":29,"x_max":1013,"o":"m 932 671 l 932 0 l 701 0 l 701 671 l 585 671 l 585 0 l 353 0 l 353 278 q 127 376 224 279 q 29 602 29 473 q 127 827 29 729 q 353 926 226 926 l 1013 926 l 1013 671 l 932 671 z "},"¼":{"ha":1040,"x_min":29,"x_max":1012,"o":"m 87 463 l 87 793 l 29 793 l 87 926 l 249 926 l 249 463 l 87 463 m 380 -10 l 163 67 l 480 937 l 698 859 l 380 -10 m 983 75 l 983 -10 l 821 -10 l 821 75 l 519 75 l 578 393 l 745 393 l 714 220 l 821 220 l 821 452 l 983 452 l 983 220 l 1012 220 l 1012 75 l 983 75 z "},"½":{"ha":1099,"x_min":29,"x_max":1069,"o":"m 87 463 l 87 793 l 29 793 l 87 926 l 249 926 l 249 463 l 87 463 m 380 -10 l 163 67 l 480 937 l 698 859 l 380 -10 m 578 0 l 578 146 q 621 248 578 204 q 722 292 665 292 l 896 292 q 913 309 913 292 q 896 330 913 330 l 606 330 l 606 463 l 925 463 q 1026 418 982 463 q 1069 316 1069 375 q 1026 214 1069 258 q 925 170 982 170 l 751 170 q 734 133 733 170 l 1069 133 l 1069 0 l 578 0 z "},"¾":{"ha":1249,"x_min":29,"x_max":1220,"o":"m 492 608 q 449 506 492 549 q 347 463 406 463 l 29 463 l 29 596 l 318 596 q 336 614 336 596 q 318 634 336 634 l 144 634 l 144 755 l 318 755 q 336 773 336 755 q 318 793 336 793 l 29 793 l 29 926 l 347 926 q 450 883 408 926 q 492 780 492 839 q 463 694 492 732 q 492 608 492 656 m 578 -10 l 360 67 l 677 937 l 895 859 l 578 -10 m 1191 87 l 1191 0 l 1029 0 l 1029 87 l 728 87 l 786 405 l 954 405 l 922 231 l 1029 231 l 1029 463 l 1191 463 l 1191 231 l 1220 231 l 1220 87 l 1191 87 z "},"¿":{"ha":868,"x_min":29,"x_max":839,"o":"m 318 0 q 116 88 202 0 q 29 293 29 177 q 116 496 29 407 q 318 585 203 585 l 562 585 q 608 660 610 585 l 839 660 l 839 633 q 751 430 839 518 q 550 341 665 341 l 376 341 q 341 307 341 341 q 376 267 341 267 l 839 267 l 839 0 l 318 0 m 839 810 q 805 728 839 764 q 724 694 771 694 q 642 728 677 694 q 608 810 608 764 q 642 892 608 858 q 724 926 677 926 q 805 892 771 926 q 839 810 839 858 z "},"À":{"ha":1099,"x_min":29,"x_max":1071,"o":"m 550 617 l 479 347 l 621 347 l 550 617 m 712 0 l 682 116 l 418 116 l 388 0 l 29 0 l 272 926 l 827 926 l 1071 0 l 712 0 m 174 1042 l 290 1158 l 694 1007 l 694 984 l 174 1042 z "},"Á":{"ha":1099,"x_min":29,"x_max":1071,"o":"m 550 617 l 479 347 l 621 347 l 550 617 m 712 0 l 682 116 l 418 116 l 388 0 l 29 0 l 272 926 l 827 926 l 1071 0 l 712 0 m 405 984 l 405 1007 l 810 1158 l 926 1042 l 405 984 z "},"Â":{"ha":1099,"x_min":29,"x_max":1071,"o":"m 550 617 l 479 347 l 621 347 l 550 617 m 712 0 l 682 116 l 418 116 l 388 0 l 29 0 l 272 926 l 827 926 l 1071 0 l 712 0 m 699 984 l 550 1096 l 401 984 l 213 984 l 444 1158 l 655 1158 l 886 984 l 699 984 z "},"Ã":{"ha":1099,"x_min":29,"x_max":1071,"o":"m 550 617 l 479 347 l 621 347 l 550 617 m 712 0 l 682 116 l 418 116 l 388 0 l 29 0 l 272 926 l 827 926 l 1071 0 l 712 0 m 781 1031 q 662 984 718 984 q 549 1012 625 984 q 435 1040 473 1040 q 318 984 380 1040 l 318 1102 q 435 1147 370 1147 q 550 1119 474 1147 q 665 1091 627 1091 q 781 1147 720 1091 l 781 1031 z "},"Ä":{"ha":1099,"x_min":29,"x_max":1071,"o":"m 550 617 l 479 347 l 621 347 l 550 617 m 712 0 l 682 116 l 418 116 l 388 0 l 29 0 l 272 926 l 827 926 l 1071 0 l 712 0 m 492 1071 q 466 1009 492 1035 q 405 984 441 984 q 344 1010 372 984 q 318 1071 318 1036 q 344 1131 318 1105 q 405 1158 370 1158 q 466 1132 440 1158 q 492 1071 492 1106 m 781 1071 q 755 1009 781 1035 q 694 984 730 984 q 633 1010 661 984 q 608 1071 608 1036 q 633 1131 608 1105 q 694 1158 660 1158 q 755 1132 730 1158 q 781 1071 781 1106 z "},"Å":{"ha":1099,"x_min":29,"x_max":1071,"o":"m 550 617 l 479 347 l 621 347 l 550 617 m 590 1071 q 578 1099 590 1087 q 550 1111 566 1111 q 509 1071 509 1111 q 550 1030 509 1030 q 578 1042 566 1030 q 590 1071 590 1055 m 712 0 l 682 116 l 418 116 l 388 0 l 29 0 l 272 926 l 827 926 l 1071 0 l 712 0 m 637 1071 q 610 1010 637 1035 q 550 984 585 984 q 489 1010 515 984 q 463 1071 463 1036 q 489 1131 463 1105 q 550 1158 514 1158 q 610 1131 585 1158 q 637 1071 637 1105 z "},"Æ":{"ha":1667,"x_min":29,"x_max":1638,"o":"m 712 617 l 557 324 l 712 324 l 712 617 m 712 0 l 712 116 l 448 116 l 388 0 l 29 0 l 511 926 l 1638 926 l 1638 637 l 1059 637 l 1059 585 l 1407 585 l 1407 341 l 1059 341 l 1059 290 l 1638 290 l 1638 0 l 712 0 z "},"È":{"ha":984,"x_min":29,"x_max":955,"o":"m 29 0 l 29 926 l 955 926 l 955 637 l 376 637 l 376 585 l 724 585 l 724 341 l 376 341 l 376 290 l 955 290 l 955 0 l 29 0 m 116 1042 l 231 1158 l 637 1007 l 637 984 l 116 1042 z "},"É":{"ha":984,"x_min":29,"x_max":955,"o":"m 29 0 l 29 926 l 955 926 l 955 637 l 376 637 l 376 585 l 724 585 l 724 341 l 376 341 l 376 290 l 955 290 l 955 0 l 29 0 m 347 984 l 347 1007 l 752 1158 l 868 1042 l 347 984 z "},"Ê":{"ha":984,"x_min":29,"x_max":955,"o":"m 29 0 l 29 926 l 955 926 l 955 637 l 376 637 l 376 585 l 724 585 l 724 341 l 376 341 l 376 290 l 955 290 l 955 0 l 29 0 m 641 984 l 492 1096 l 342 984 l 155 984 l 387 1158 l 597 1158 l 829 984 l 641 984 z "},"Ë":{"ha":984,"x_min":29,"x_max":955,"o":"m 29 0 l 29 926 l 955 926 l 955 637 l 376 637 l 376 585 l 724 585 l 724 341 l 376 341 l 376 290 l 955 290 l 955 0 l 29 0 m 434 1071 q 408 1010 434 1035 q 347 984 382 984 q 286 1010 314 984 q 260 1071 260 1036 q 286 1131 260 1105 q 347 1158 313 1158 q 408 1132 382 1158 q 434 1071 434 1106 m 724 1071 q 697 1010 724 1035 q 637 984 671 984 q 576 1010 602 984 q 550 1071 550 1036 q 576 1131 550 1105 q 637 1158 601 1158 q 698 1132 672 1158 q 724 1071 724 1106 z "},"Ì":{"ha":405,"x_min":-172,"x_max":376,"o":"m 29 0 l 29 926 l 376 926 l 376 0 l 29 0 m -172 1042 l -57 1158 l 347 1007 l 347 984 l -172 1042 z "},"Í":{"ha":405,"x_min":29,"x_max":578,"o":"m 29 0 l 29 926 l 376 926 l 376 0 l 29 0 m 58 984 l 58 1007 l 463 1158 l 578 1042 l 58 984 z "},"Î":{"ha":405,"x_min":-133,"x_max":539,"o":"m 29 0 l 29 926 l 376 926 l 376 0 l 29 0 m 352 984 l 203 1096 l 54 984 l -133 984 l 97 1158 l 308 1158 l 539 984 l 352 984 z "},"Ï":{"ha":405,"x_min":-28,"x_max":434,"o":"m 29 0 l 29 926 l 376 926 l 376 0 l 29 0 m 144 1071 q 119 1010 144 1036 q 58 984 93 984 q -2 1010 24 984 q -28 1071 -28 1036 q -2 1131 -28 1105 q 58 1158 23 1158 q 119 1132 93 1158 q 144 1071 144 1106 m 434 1071 q 408 1010 434 1035 q 347 984 382 984 q 286 1010 314 984 q 260 1071 260 1036 q 286 1131 260 1105 q 347 1158 313 1158 q 408 1132 382 1158 q 434 1071 434 1106 z "},"Ñ":{"ha":1042,"x_min":29,"x_max":1013,"o":"m 665 0 q 593 262 660 150 q 376 405 513 398 l 376 0 l 29 0 l 29 926 l 33 926 q 388 859 228 926 q 665 637 568 783 l 665 926 l 1013 926 l 1013 0 l 665 0 m 752 1031 q 633 984 688 984 q 519 1012 595 984 q 406 1040 444 1040 q 290 984 351 1040 l 290 1102 q 406 1147 341 1147 q 522 1119 446 1147 q 637 1091 597 1091 q 752 1147 690 1091 l 752 1031 z "},"Ò":{"ha":1042,"x_min":29,"x_max":1013,"o":"m 701 463 q 646 585 701 533 q 521 637 592 637 q 395 585 448 637 q 341 463 341 534 q 395 341 341 393 q 521 290 448 290 q 646 341 593 290 q 701 463 701 393 m 1013 463 q 862 132 1013 269 q 521 0 718 0 q 180 132 324 0 q 29 463 29 269 q 180 794 29 656 q 521 926 326 926 q 862 794 716 926 q 1013 463 1013 656 m 144 1042 l 260 1158 l 665 1007 l 665 984 l 144 1042 z "},"Ó":{"ha":1042,"x_min":29,"x_max":1013,"o":"m 701 463 q 646 585 701 533 q 521 637 592 637 q 395 585 448 637 q 341 463 341 534 q 395 341 341 393 q 521 290 448 290 q 646 341 593 290 q 701 463 701 393 m 1013 463 q 862 132 1013 269 q 521 0 718 0 q 180 132 324 0 q 29 463 29 269 q 180 794 29 656 q 521 926 326 926 q 862 794 716 926 q 1013 463 1013 656 m 376 984 l 376 1007 l 781 1158 l 897 1042 l 376 984 z "},"Ô":{"ha":1042,"x_min":29,"x_max":1013,"o":"m 701 463 q 646 585 701 533 q 521 637 592 637 q 395 585 449 637 q 341 463 341 533 q 395 341 341 393 q 521 290 448 290 q 646 341 593 290 q 701 463 701 393 m 1013 463 q 862 132 1013 269 q 521 0 718 0 q 180 132 324 0 q 29 463 29 269 q 180 794 29 656 q 521 926 326 926 q 862 794 716 926 q 1013 463 1013 656 m 670 984 l 521 1096 l 372 984 l 184 984 l 416 1158 l 626 1158 l 858 984 l 670 984 z "},"Õ":{"ha":1042,"x_min":29,"x_max":1013,"o":"m 701 463 q 646 585 701 533 q 521 637 592 637 q 395 585 448 637 q 341 463 341 534 q 395 341 341 393 q 521 290 448 290 q 646 341 593 290 q 701 463 701 393 m 1013 463 q 862 132 1013 269 q 521 0 718 0 q 180 132 324 0 q 29 463 29 269 q 180 794 29 656 q 521 926 326 926 q 862 794 716 926 q 1013 463 1013 656 m 752 1031 q 633 984 688 984 q 519 1012 595 984 q 406 1040 444 1040 q 290 984 351 1040 l 290 1102 q 406 1147 341 1147 q 522 1119 446 1147 q 637 1091 597 1091 q 752 1147 690 1091 l 752 1031 z "},"Ö":{"ha":1042,"x_min":29,"x_max":1013,"o":"m 701 463 q 646 585 701 533 q 521 637 592 637 q 395 585 448 637 q 341 463 341 534 q 395 341 341 393 q 521 290 448 290 q 646 341 593 290 q 701 463 701 393 m 1013 463 q 862 132 1013 269 q 521 0 718 0 q 180 132 324 0 q 29 463 29 269 q 180 794 29 656 q 521 926 326 926 q 862 794 716 926 q 1013 463 1013 656 m 463 1071 q 437 1009 463 1035 q 376 984 412 984 q 315 1010 341 984 q 290 1071 290 1036 q 315 1131 290 1105 q 376 1158 340 1158 q 437 1132 412 1158 q 463 1071 463 1106 m 752 1071 q 726 1009 752 1035 q 665 984 701 984 q 604 1010 632 984 q 578 1071 578 1036 q 604 1131 578 1105 q 665 1158 631 1158 q 726 1132 701 1158 q 752 1071 752 1106 z "},"×":{"ha":507,"x_min":29,"x_max":478,"o":"m 355 239 l 254 340 l 152 239 l 29 361 l 131 463 l 29 565 l 152 688 l 254 586 l 355 688 l 478 565 l 376 463 l 478 361 l 355 239 z "},"Ø":{"ha":1042,"x_min":-30,"x_max":1073,"o":"m 566 631 q 521 637 544 637 q 395 585 449 637 q 341 463 341 533 q 349 414 341 439 l 566 631 m 701 463 q 692 511 701 488 l 475 295 q 521 290 500 290 q 646 341 593 290 q 701 463 701 393 m 917 736 q 1013 463 1013 614 q 862 132 1013 269 q 521 0 718 0 q 256 75 380 0 l 92 -88 l -30 33 l 125 190 q 29 463 29 311 q 180 794 29 656 q 521 926 326 926 q 786 850 662 926 l 950 1015 l 1073 892 l 917 736 z "},"Ù":{"ha":1042,"x_min":29,"x_max":1013,"o":"m 1013 463 q 862 132 1013 269 q 521 0 718 0 q 180 132 324 0 q 29 463 29 269 l 29 926 l 341 926 l 341 463 q 395 341 341 393 q 521 290 448 290 q 646 341 592 290 q 701 463 701 393 l 701 926 l 1013 926 l 1013 463 m 144 1042 l 260 1158 l 665 1007 l 665 984 l 144 1042 z "},"Ú":{"ha":1042,"x_min":29,"x_max":1013,"o":"m 1013 463 q 862 132 1013 269 q 521 0 718 0 q 180 132 324 0 q 29 463 29 269 l 29 926 l 341 926 l 341 463 q 395 341 341 393 q 521 290 448 290 q 646 341 592 290 q 701 463 701 393 l 701 926 l 1013 926 l 1013 463 m 376 984 l 376 1007 l 781 1158 l 897 1042 l 376 984 z "},"Û":{"ha":1042,"x_min":29,"x_max":1013,"o":"m 1013 463 q 862 132 1013 269 q 521 0 718 0 q 180 132 324 0 q 29 463 29 269 l 29 926 l 341 926 l 341 463 q 395 341 341 393 q 521 290 448 290 q 646 341 592 290 q 701 463 701 393 l 701 926 l 1013 926 l 1013 463 m 670 984 l 521 1096 l 372 984 l 184 984 l 416 1158 l 626 1158 l 858 984 l 670 984 z "},"Ü":{"ha":1042,"x_min":29,"x_max":1013,"o":"m 1013 463 q 862 132 1013 269 q 521 0 718 0 q 180 132 324 0 q 29 463 29 269 l 29 926 l 341 926 l 341 463 q 395 341 341 393 q 521 290 448 290 q 646 341 592 290 q 701 463 701 393 l 701 926 l 1013 926 l 1013 463 m 463 1071 q 437 1009 463 1035 q 376 984 412 984 q 315 1010 341 984 q 290 1071 290 1036 q 315 1131 290 1105 q 376 1158 340 1158 q 437 1131 411 1158 q 463 1071 463 1105 m 752 1071 q 726 1009 752 1035 q 665 984 701 984 q 604 1010 632 984 q 578 1071 578 1036 q 604 1131 578 1105 q 665 1158 631 1158 q 726 1131 701 1158 q 752 1071 752 1105 z "},"Ý":{"ha":1146,"x_min":29,"x_max":1117,"o":"m 747 290 l 747 0 l 399 0 l 399 290 l 29 926 l 422 926 l 573 654 l 724 926 l 1117 926 l 747 290 m 428 984 l 428 1007 l 833 1158 l 949 1042 l 428 984 z "},"à":{"ha":1099,"x_min":29,"x_max":1071,"o":"m 550 617 l 479 347 l 621 347 l 550 617 m 712 0 l 682 116 l 418 116 l 388 0 l 29 0 l 272 926 l 827 926 l 1071 0 l 712 0 m 174 1042 l 290 1158 l 694 1007 l 694 984 l 174 1042 z "},"á":{"ha":1099,"x_min":29,"x_max":1071,"o":"m 550 617 l 479 347 l 621 347 l 550 617 m 712 0 l 682 116 l 418 116 l 388 0 l 29 0 l 272 926 l 827 926 l 1071 0 l 712 0 m 405 984 l 405 1007 l 810 1158 l 926 1042 l 405 984 z "},"â":{"ha":1099,"x_min":29,"x_max":1071,"o":"m 550 617 l 479 347 l 621 347 l 550 617 m 712 0 l 682 116 l 418 116 l 388 0 l 29 0 l 272 926 l 827 926 l 1071 0 l 712 0 m 699 984 l 550 1096 l 401 984 l 213 984 l 444 1158 l 655 1158 l 886 984 l 699 984 z "},"ã":{"ha":1099,"x_min":29,"x_max":1071,"o":"m 550 617 l 479 347 l 621 347 l 550 617 m 712 0 l 682 116 l 418 116 l 388 0 l 29 0 l 272 926 l 827 926 l 1071 0 l 712 0 m 781 1031 q 662 984 718 984 q 549 1012 625 984 q 435 1040 473 1040 q 318 984 380 1040 l 318 1102 q 435 1147 370 1147 q 550 1119 474 1147 q 665 1091 627 1091 q 781 1147 720 1091 l 781 1031 z "},"ä":{"ha":1099,"x_min":29,"x_max":1071,"o":"m 550 617 l 479 347 l 621 347 l 550 617 m 712 0 l 682 116 l 418 116 l 388 0 l 29 0 l 272 926 l 827 926 l 1071 0 l 712 0 m 492 1071 q 466 1010 492 1036 q 405 984 440 984 q 344 1010 372 984 q 318 1071 318 1036 q 343 1132 318 1107 q 405 1158 369 1158 q 466 1132 440 1158 q 492 1071 492 1106 m 781 1071 q 755 1010 781 1035 q 694 984 729 984 q 633 1010 661 984 q 608 1071 608 1036 q 633 1132 608 1107 q 694 1158 659 1158 q 755 1132 730 1158 q 781 1071 781 1106 z "},"å":{"ha":1099,"x_min":29,"x_max":1071,"o":"m 550 617 l 479 347 l 621 347 l 550 617 m 590 1071 q 578 1099 590 1087 q 550 1111 566 1111 q 509 1071 509 1111 q 550 1030 509 1030 q 578 1042 566 1030 q 590 1071 590 1055 m 712 0 l 682 116 l 418 116 l 388 0 l 29 0 l 272 926 l 827 926 l 1071 0 l 712 0 m 637 1071 q 610 1010 637 1035 q 550 984 585 984 q 489 1010 515 984 q 463 1071 463 1036 q 489 1131 463 1105 q 550 1158 514 1158 q 610 1131 585 1158 q 637 1071 637 1105 z "},"æ":{"ha":1667,"x_min":29,"x_max":1638,"o":"m 712 617 l 557 324 l 712 324 l 712 617 m 712 0 l 712 116 l 448 116 l 388 0 l 29 0 l 511 926 l 1638 926 l 1638 637 l 1059 637 l 1059 585 l 1407 585 l 1407 341 l 1059 341 l 1059 290 l 1638 290 l 1638 0 l 712 0 z "},"è":{"ha":984,"x_min":29,"x_max":955,"o":"m 29 0 l 29 926 l 955 926 l 955 637 l 376 637 l 376 585 l 724 585 l 724 341 l 376 341 l 376 290 l 955 290 l 955 0 l 29 0 m 116 1042 l 231 1158 l 637 1007 l 637 984 l 116 1042 z "},"é":{"ha":984,"x_min":29,"x_max":955,"o":"m 29 0 l 29 926 l 955 926 l 955 637 l 376 637 l 376 585 l 724 585 l 724 341 l 376 341 l 376 290 l 955 290 l 955 0 l 29 0 m 347 984 l 347 1007 l 752 1158 l 868 1042 l 347 984 z "},"ê":{"ha":984,"x_min":29,"x_max":955,"o":"m 29 0 l 29 926 l 955 926 l 955 637 l 376 637 l 376 585 l 724 585 l 724 341 l 376 341 l 376 290 l 955 290 l 955 0 l 29 0 m 641 984 l 492 1096 l 342 984 l 155 984 l 387 1158 l 597 1158 l 829 984 l 641 984 z "},"ë":{"ha":984,"x_min":29,"x_max":955,"o":"m 29 0 l 29 926 l 955 926 l 955 637 l 376 637 l 376 585 l 724 585 l 724 341 l 376 341 l 376 290 l 955 290 l 955 0 l 29 0 m 434 1071 q 408 1010 434 1035 q 347 984 382 984 q 286 1010 314 984 q 260 1071 260 1036 q 286 1131 260 1105 q 347 1158 313 1158 q 408 1131 382 1158 q 434 1071 434 1105 m 724 1071 q 697 1010 724 1035 q 637 984 671 984 q 576 1010 602 984 q 550 1071 550 1036 q 576 1131 550 1105 q 637 1158 601 1158 q 697 1131 671 1158 q 724 1071 724 1105 z "},"ì":{"ha":405,"x_min":-172,"x_max":376,"o":"m 29 0 l 29 926 l 376 926 l 376 0 l 29 0 m -172 1042 l -57 1158 l 347 1007 l 347 984 l -172 1042 z "},"í":{"ha":405,"x_min":29,"x_max":578,"o":"m 29 0 l 29 926 l 376 926 l 376 0 l 29 0 m 58 984 l 58 1007 l 463 1158 l 578 1042 l 58 984 z "},"î":{"ha":405,"x_min":-133,"x_max":539,"o":"m 29 0 l 29 926 l 376 926 l 376 0 l 29 0 m 352 984 l 203 1096 l 54 984 l -133 984 l 97 1158 l 308 1158 l 539 984 l 352 984 z "},"ï":{"ha":405,"x_min":-28,"x_max":434,"o":"m 29 0 l 29 926 l 376 926 l 376 0 l 29 0 m 144 1071 q 119 1010 144 1036 q 58 984 93 984 q -2 1010 24 984 q -28 1071 -28 1036 q -3 1132 -28 1107 q 58 1158 22 1158 q 119 1131 93 1158 q 144 1071 144 1105 m 434 1071 q 408 1010 434 1035 q 347 984 382 984 q 286 1010 314 984 q 260 1071 260 1036 q 286 1132 260 1107 q 347 1158 311 1158 q 408 1131 382 1158 q 434 1071 434 1105 z "},"ñ":{"ha":1042,"x_min":29,"x_max":1013,"o":"m 665 0 l 376 370 l 376 0 l 29 0 l 29 926 l 376 926 l 665 555 l 665 926 l 1013 926 l 1013 0 l 665 0 m 752 1031 q 633 984 688 984 q 519 1012 595 984 q 406 1040 444 1040 q 290 984 351 1040 l 290 1102 q 406 1147 341 1147 q 522 1119 446 1147 q 637 1091 597 1091 q 752 1147 690 1091 l 752 1031 z "},"ò":{"ha":1042,"x_min":29,"x_max":1013,"o":"m 701 463 q 646 585 701 533 q 521 637 592 637 q 395 585 448 637 q 341 463 341 534 q 395 341 341 393 q 521 290 448 290 q 646 341 593 290 q 701 463 701 393 m 1013 463 q 862 132 1013 269 q 521 0 718 0 q 180 132 324 0 q 29 463 29 269 q 180 794 29 656 q 521 926 326 926 q 862 794 716 926 q 1013 463 1013 656 m 144 1042 l 260 1158 l 665 1007 l 665 984 l 144 1042 z "},"ó":{"ha":1042,"x_min":29,"x_max":1013,"o":"m 701 463 q 646 585 701 533 q 521 637 592 637 q 395 585 448 637 q 341 463 341 534 q 395 341 341 393 q 521 290 448 290 q 646 341 593 290 q 701 463 701 393 m 1013 463 q 862 132 1013 269 q 521 0 718 0 q 180 132 324 0 q 29 463 29 269 q 180 794 29 656 q 521 926 326 926 q 862 794 716 926 q 1013 463 1013 656 m 376 984 l 376 1007 l 781 1158 l 897 1042 l 376 984 z "},"ô":{"ha":1042,"x_min":29,"x_max":1013,"o":"m 701 463 q 646 585 701 533 q 521 637 592 637 q 395 585 449 637 q 341 463 341 533 q 395 341 341 393 q 521 290 448 290 q 646 341 593 290 q 701 463 701 393 m 1013 463 q 862 132 1013 269 q 521 0 718 0 q 180 132 324 0 q 29 463 29 269 q 180 794 29 656 q 521 926 326 926 q 862 794 716 926 q 1013 463 1013 656 m 670 984 l 521 1096 l 372 984 l 184 984 l 416 1158 l 626 1158 l 858 984 l 670 984 z "},"õ":{"ha":1042,"x_min":29,"x_max":1013,"o":"m 701 463 q 646 585 701 533 q 521 637 592 637 q 395 585 448 637 q 341 463 341 534 q 395 341 341 393 q 521 290 448 290 q 646 341 593 290 q 701 463 701 393 m 1013 463 q 862 132 1013 269 q 521 0 718 0 q 180 132 324 0 q 29 463 29 269 q 180 794 29 656 q 521 926 326 926 q 862 794 716 926 q 1013 463 1013 656 m 752 1031 q 633 984 688 984 q 519 1012 595 984 q 406 1040 444 1040 q 290 984 351 1040 l 290 1102 q 406 1147 341 1147 q 522 1119 446 1147 q 637 1091 597 1091 q 752 1147 690 1091 l 752 1031 z "},"ö":{"ha":1042,"x_min":29,"x_max":1013,"o":"m 701 463 q 646 585 701 533 q 521 637 592 637 q 395 585 448 637 q 341 463 341 534 q 395 341 341 393 q 521 290 448 290 q 646 341 593 290 q 701 463 701 393 m 1013 463 q 862 132 1013 269 q 521 0 718 0 q 180 132 324 0 q 29 463 29 269 q 180 794 29 656 q 521 926 326 926 q 862 794 716 926 q 1013 463 1013 656 m 463 1071 q 437 1009 463 1035 q 376 984 412 984 q 315 1010 341 984 q 290 1071 290 1036 q 315 1131 290 1105 q 376 1158 340 1158 q 437 1131 411 1158 q 463 1071 463 1105 m 752 1071 q 726 1009 752 1035 q 665 984 701 984 q 604 1010 632 984 q 578 1071 578 1036 q 604 1131 578 1105 q 665 1158 631 1158 q 726 1131 701 1158 q 752 1071 752 1105 z "},"÷":{"ha":521,"x_min":29,"x_max":492,"o":"m 347 267 q 321 205 347 231 q 260 180 295 180 q 199 205 227 180 q 174 267 174 231 q 199 327 174 301 q 260 353 226 353 q 321 327 295 353 q 347 267 347 301 m 29 376 l 29 550 l 492 550 l 492 376 l 29 376 m 347 660 q 321 599 347 625 q 260 573 295 573 q 199 599 227 573 q 174 660 174 627 q 199 720 174 694 q 260 747 226 747 q 321 720 295 747 q 347 660 347 694 z "},"ø":{"ha":1042,"x_min":-30,"x_max":1073,"o":"m 566 631 q 521 637 544 637 q 395 585 449 637 q 341 463 341 533 q 349 414 341 439 l 566 631 m 701 463 q 692 511 701 488 l 475 295 q 521 290 500 290 q 646 341 593 290 q 701 463 701 393 m 917 736 q 1013 463 1013 614 q 862 132 1013 269 q 521 0 718 0 q 256 75 380 0 l 92 -88 l -30 33 l 125 190 q 29 463 29 311 q 180 794 29 656 q 521 926 326 926 q 786 850 662 926 l 950 1015 l 1073 892 l 917 736 z "},"ù":{"ha":1042,"x_min":29,"x_max":1013,"o":"m 1013 463 q 862 132 1013 269 q 521 0 718 0 q 180 132 324 0 q 29 463 29 269 l 29 926 l 341 926 l 341 463 q 395 341 341 393 q 521 290 448 290 q 646 341 592 290 q 701 463 701 393 l 701 926 l 1013 926 l 1013 463 m 144 1042 l 260 1158 l 665 1007 l 665 984 l 144 1042 z "},"ú":{"ha":1042,"x_min":29,"x_max":1013,"o":"m 1013 463 q 862 132 1013 269 q 521 0 718 0 q 180 132 324 0 q 29 463 29 269 l 29 926 l 341 926 l 341 463 q 395 341 341 393 q 521 290 448 290 q 646 341 592 290 q 701 463 701 393 l 701 926 l 1013 926 l 1013 463 m 376 984 l 376 1007 l 781 1158 l 897 1042 l 376 984 z "},"û":{"ha":1042,"x_min":29,"x_max":1013,"o":"m 1013 463 q 862 132 1013 269 q 521 0 718 0 q 180 132 324 0 q 29 463 29 269 l 29 926 l 341 926 l 341 463 q 395 341 341 393 q 521 290 448 290 q 646 341 592 290 q 701 463 701 393 l 701 926 l 1013 926 l 1013 463 m 670 984 l 521 1096 l 372 984 l 184 984 l 416 1158 l 626 1158 l 858 984 l 670 984 z "},"ü":{"ha":1042,"x_min":29,"x_max":1013,"o":"m 1013 463 q 862 132 1013 269 q 521 0 718 0 q 180 132 324 0 q 29 463 29 269 l 29 926 l 341 926 l 341 463 q 395 341 341 393 q 521 290 448 290 q 646 341 592 290 q 701 463 701 393 l 701 926 l 1013 926 l 1013 463 m 463 1071 q 437 1009 463 1035 q 376 984 412 984 q 315 1010 341 984 q 290 1071 290 1036 q 315 1131 290 1105 q 376 1158 340 1158 q 437 1132 412 1158 q 463 1071 463 1106 m 752 1071 q 726 1009 752 1035 q 665 984 701 984 q 604 1010 632 984 q 578 1071 578 1036 q 604 1131 578 1105 q 665 1158 631 1158 q 726 1132 701 1158 q 752 1071 752 1106 z "},"ý":{"ha":1146,"x_min":29,"x_max":1117,"o":"m 747 290 l 747 0 l 399 0 l 399 290 l 29 926 l 422 926 l 573 654 l 724 926 l 1117 926 l 747 290 m 428 984 l 428 1007 l 833 1158 l 949 1042 l 428 984 z "},"ÿ":{"ha":1146,"x_min":29,"x_max":1117,"o":"m 747 290 l 747 0 l 399 0 l 399 290 l 29 926 l 422 926 l 573 654 l 724 926 l 1117 926 l 747 290 m 515 1071 q 489 1010 515 1036 q 428 984 463 984 q 367 1010 395 984 q 341 1071 341 1036 q 367 1131 341 1105 q 428 1158 393 1158 q 489 1132 463 1158 q 515 1071 515 1106 m 804 1071 q 778 1010 804 1035 q 718 984 752 984 q 656 1010 684 984 q 631 1071 631 1036 q 656 1131 631 1105 q 718 1158 683 1158 q 779 1132 753 1158 q 804 1071 804 1106 z "},"‛":{"ha":290,"x_min":29,"x_max":260,"o":"m 260 810 q 226 728 260 763 q 144 694 192 694 l 180 578 q 97 633 140 582 q 46 723 64 676 q 29 810 29 770 q 64 891 29 857 q 144 926 98 926 q 226 891 191 926 q 260 810 260 857 z "}}}
